<svg width="9" height="12" viewBox="0 0 9 12" fill="none" xmlns="http://www.w3.org/2000/svg">
<path d="M4.4383 10.7239L4.4383 9.65091L4.4383 0.85791C4.4383 0.843176 4.44415 0.829045 4.45457 0.818626C4.46499 0.808208 4.47912 0.802354 4.49386 0.802354C4.50859 0.802354 4.52272 0.808208 4.53314 0.818626C4.54356 0.829045 4.54941 0.843176 4.54941 0.85791L4.54941 9.65091L4.54941 10.7239L5.30813 9.96518L7.95463 7.31868L7.96009 7.31322L7.96004 7.31317C7.96516 7.30787 7.97129 7.30363 7.97807 7.30072C7.98485 7.29781 7.99214 7.29628 7.99952 7.29621C8.00689 7.29615 8.01421 7.29755 8.02104 7.30035C8.02786 7.30314 8.03407 7.30727 8.03928 7.31248C8.0445 7.3177 8.04863 7.3239 8.05142 7.33073C8.05421 7.33755 8.05562 7.34487 8.05555 7.35225C8.05549 7.35962 8.05396 7.36691 8.05105 7.37369C8.04813 7.38047 8.0439 7.3866 8.0386 7.39173L8.03304 7.39709L8.03309 7.39714L4.53313 10.8971L4.4383 10.7239ZM4.4383 10.7239L3.67959 9.96518M4.4383 10.7239L3.67959 9.96518M3.67959 9.96518L1.03719 7.32278C1.02688 7.31349 1.01344 7.30838 0.999517 7.3085C0.984952 7.30863 0.971017 7.31447 0.960716 7.32477C0.950416 7.33507 0.944573 7.34901 0.944447 7.36357C0.944326 7.37749 0.949436 7.39093 0.958724 7.40124M3.67959 9.96518L0.958724 7.40124M0.958724 7.40124L4.45458 10.8971L0.958724 7.40124ZM4.49386 10.9134C4.50857 10.9134 4.52267 10.9075 4.53309 10.8971L4.45463 10.8971C4.46504 10.9075 4.47915 10.9134 4.49386 10.9134Z" stroke="#29292E" stroke-width="0.888889"/>
</svg>
