<svg width="33" height="33" viewBox="0 0 33 33" fill="none" xmlns="http://www.w3.org/2000/svg">
<rect x="1" y="32.3579" width="31" height="31" rx="15.5" transform="rotate(-90 1 32.3579)" fill="white"/>
<rect x="1" y="32.3579" width="31" height="31" rx="15.5" transform="rotate(-90 1 32.3579)" stroke="white"/>
<path d="M16.4383 21.7239L16.4383 20.6509L16.4383 11.8579C16.4383 11.8432 16.4442 11.829 16.4546 11.8186C16.465 11.8082 16.4791 11.8024 16.4939 11.8024C16.5086 11.8024 16.5227 11.8082 16.5331 11.8186C16.5436 11.829 16.5494 11.8432 16.5494 11.8579L16.5494 20.6509L16.5494 21.7239L17.3081 20.9652L19.9546 18.3187L19.9601 18.3132L19.96 18.3132C19.9652 18.3079 19.9713 18.3036 19.9781 18.3007C19.9849 18.2978 19.9921 18.2963 19.9995 18.2962C20.0069 18.2961 20.0142 18.2976 20.021 18.3003C20.0279 18.3031 20.0341 18.3073 20.0393 18.3125C20.0445 18.3177 20.0486 18.3239 20.0514 18.3307C20.0542 18.3376 20.0556 18.3449 20.0556 18.3523C20.0555 18.3596 20.054 18.3669 20.051 18.3737C20.0481 18.3805 20.0439 18.3866 20.0386 18.3917L20.033 18.3971L20.0331 18.3971L16.5331 21.8971L16.4383 21.7239ZM16.4383 21.7239L15.6796 20.9652M16.4383 21.7239L15.6796 20.9652M15.6796 20.9652L13.0372 18.3228C13.0269 18.3135 13.0134 18.3084 12.9995 18.3085C12.985 18.3086 12.971 18.3145 12.9607 18.3248C12.9504 18.3351 12.9446 18.349 12.9444 18.3636C12.9443 18.3775 12.9494 18.3909 12.9587 18.4012M15.6796 20.9652L12.9587 18.4012M12.9587 18.4012L16.4546 21.8971L12.9587 18.4012ZM16.4939 21.9134C16.5086 21.9134 16.5227 21.9075 16.5331 21.8971L16.4546 21.8971C16.465 21.9075 16.4791 21.9134 16.4939 21.9134Z" stroke="#29292E" stroke-width="0.888889"/>
</svg>
