<svg width="89" height="89" viewBox="0 0 89 89" fill="none" xmlns="http://www.w3.org/2000/svg">
<rect x="0.5" y="0.881836" width="88" height="88" rx="44" fill="#009DA8"/>
<path d="M29.0141 29.564C28.9214 29.4421 28.8009 29.3432 28.6623 29.275C28.5237 29.2068 28.3707 29.1713 28.2156 29.1713C28.0605 29.1713 27.9076 29.2068 27.769 29.275C27.6304 29.3432 27.5099 29.4421 27.4172 29.564L21.1115 37.8531C21.0012 37.9982 20.9342 38.1705 20.9179 38.3507C20.9017 38.531 20.9368 38.7121 21.0195 38.8739C21.1021 39.0357 21.229 39.1718 21.386 39.2671C21.5429 39.3623 21.7238 39.4129 21.9084 39.4132H24.4333L24.3388 58.2683C24.3376 58.5272 24.4412 58.7761 24.6271 58.9601C24.8129 59.1441 25.0656 59.2482 25.3298 59.2495H25.3349C25.5982 59.2496 25.8508 59.1474 26.0375 58.9653C26.2241 58.7833 26.3297 58.5362 26.331 58.2781L26.4318 38.4421C26.4326 38.3133 26.4073 38.1857 26.3575 38.0665C26.3077 37.9473 26.2343 37.8389 26.1416 37.7476C26.0489 37.6564 25.9387 37.584 25.8174 37.5346C25.696 37.4853 25.5659 37.4599 25.4345 37.4601H23.8942L28.2156 31.7812L32.5371 37.4601H30.9967C30.7337 37.4601 30.4814 37.5621 30.2948 37.7438C30.1082 37.9255 30.0024 38.1722 30.0006 38.43L29.8998 53.1035C29.8989 53.2317 29.9238 53.3589 29.9731 53.4777C30.0223 53.5965 30.0949 53.7046 30.1868 53.7959C30.2787 53.8872 30.388 53.9599 30.5085 54.0098C30.629 54.0597 30.7583 54.0858 30.8892 54.0867H30.8959C31.159 54.0867 31.4114 53.9846 31.598 53.8028C31.7846 53.6211 31.8903 53.3743 31.892 53.1163L31.986 39.4132H34.5229C34.7076 39.413 34.8885 39.3624 35.0455 39.2671C35.2025 39.1719 35.3295 39.0357 35.4121 38.8738C35.4948 38.712 35.5299 38.5307 35.5136 38.3504C35.4973 38.1701 35.4302 37.9978 35.3198 37.8527L29.0141 29.564ZM67.8881 37.8531L61.5808 29.564C61.4881 29.4421 61.3676 29.3432 61.229 29.275C61.0904 29.2068 60.9374 29.1713 60.7823 29.1713C60.6272 29.1713 60.4743 29.2068 60.3357 29.275C60.197 29.3432 60.0766 29.4421 59.9839 29.564L53.6766 37.8531C53.5662 37.9982 53.4991 38.1705 53.4828 38.3508C53.4664 38.5311 53.5016 38.7123 53.5842 38.8742C53.6669 39.0361 53.7938 39.1723 53.9509 39.2675C54.1079 39.3628 54.2888 39.4133 54.4735 39.4136H56.9968L56.9027 53.1038C56.9018 53.2321 56.9267 53.3593 56.976 53.4781C57.0252 53.5969 57.0978 53.705 57.1897 53.7963C57.2816 53.8876 57.3909 53.9603 57.5114 54.0102C57.6319 54.0601 57.7612 54.0862 57.8921 54.0871H57.8988C58.1619 54.0871 58.4143 53.985 58.6009 53.8032C58.7876 53.6214 58.8932 53.3747 58.8949 53.1167L58.9957 38.4437C58.9967 38.3151 58.9717 38.1876 58.9223 38.0685C58.8728 37.9494 58.7999 37.8411 58.7077 37.7497C58.6154 37.6583 58.5056 37.5857 58.3847 37.536C58.2637 37.4863 58.134 37.4605 58.0028 37.4601H56.4625L60.7839 31.7812L65.1054 37.4601H63.565C63.3017 37.4601 63.0491 37.5623 62.8625 37.7443C62.6758 37.9264 62.5703 38.1735 62.5689 38.4316L62.4693 58.2683C62.468 58.5272 62.5717 58.7761 62.7575 58.9601C62.9434 59.1441 63.1961 59.2482 63.4602 59.2495H63.4654C63.7287 59.2496 63.9813 59.1474 64.1679 58.9653C64.3546 58.7833 64.4601 58.5362 64.4615 58.2781L64.5559 39.4132H67.0912C67.2758 39.413 67.4568 39.3624 67.6138 39.2671C67.7708 39.1719 67.8977 39.0357 67.9804 38.8738C68.0631 38.712 68.0982 38.5307 68.0819 38.3504C68.0656 38.1701 67.9985 37.9982 67.8881 37.8531ZM45.2967 22.1496C45.2039 22.0277 45.0835 21.9287 44.9448 21.8605C44.8062 21.7923 44.6533 21.7568 44.4982 21.7568C44.3431 21.7568 44.1901 21.7923 44.0515 21.8605C43.9129 21.9287 43.7924 22.0277 43.6997 22.1496L37.394 30.4382C37.2831 30.5833 37.2155 30.7558 37.1988 30.9365C37.1822 31.1171 37.2173 31.2987 37.3 31.4609C37.3827 31.6231 37.5099 31.7595 37.6672 31.8549C37.8246 31.9502 38.0059 32.0007 38.1909 32.0007H40.721V34.6624C40.721 34.9214 40.8259 35.1698 41.0127 35.353C41.1995 35.5361 41.4529 35.639 41.7171 35.639C41.9813 35.639 42.2346 35.5361 42.4214 35.353C42.6082 35.1698 42.7132 34.9214 42.7132 34.6624V31.0226C42.7132 30.7636 42.6082 30.5152 42.4214 30.3321C42.2346 30.1489 41.9813 30.046 41.7171 30.046H40.1783L44.4998 24.3663L48.8212 30.046H47.2809C47.0167 30.046 46.7633 30.1489 46.5765 30.3321C46.3897 30.5152 46.2848 30.7636 46.2848 31.0226V34.6609C46.2848 34.9199 46.3897 35.1683 46.5765 35.3514C46.7633 35.5346 47.0167 35.6374 47.2809 35.6374C47.5451 35.6374 47.7984 35.5346 47.9852 35.3514C48.172 35.1683 48.277 34.9199 48.277 34.6609V31.9992H50.807C50.992 31.9992 51.1734 31.9487 51.3307 31.8533C51.4881 31.758 51.6152 31.6215 51.698 31.4593C51.7807 31.2971 51.8157 31.1155 51.7991 30.9349C51.7825 30.7543 51.7149 30.5817 51.6039 30.4367L45.2967 22.1496Z" fill="white"/>
<path d="M44.501 51.9443C45.906 51.9443 47.2796 51.5359 48.4478 50.7706C49.6161 50.0052 50.5266 48.9175 51.0643 47.6448C51.602 46.3722 51.7427 44.9718 51.4686 43.6207C51.1945 42.2697 50.5179 41.0287 49.5244 40.0546C48.5308 39.0806 47.265 38.4172 45.8869 38.1485C44.5089 37.8797 43.0804 38.0177 41.7823 38.5448C40.4842 39.072 39.3747 39.9647 38.5941 41.11C37.8135 42.2554 37.3968 43.602 37.3968 44.9795C37.3994 46.8259 38.1486 48.596 39.4804 49.9016C40.8121 51.2073 42.6176 51.9419 44.501 51.9443ZM44.501 39.9678C45.512 39.9678 46.5004 40.2617 47.341 40.8124C48.1817 41.3631 48.8369 42.1458 49.2238 43.0616C49.6107 43.9774 49.7119 44.9851 49.5147 45.9572C49.3175 46.9294 48.8306 47.8224 48.1157 48.5233C47.4007 49.2242 46.4899 49.7015 45.4983 49.8949C44.5066 50.0883 43.4788 49.989 42.5447 49.6097C41.6106 49.2304 40.8122 48.588 40.2505 47.7639C39.6888 46.9397 39.389 45.9707 39.389 44.9795C39.3907 43.6508 39.9298 42.377 40.8881 41.4375C41.8464 40.498 43.1457 39.9694 44.501 39.9678ZM58.9085 64.4131V64.4092L58.8089 64.1475C55.2827 54.8897 54.8882 54.6084 44.8396 54.6084H44.1663C34.1177 54.6084 33.7193 54.8936 30.1931 64.1514L30.0935 64.4131C29.7508 65.3154 29.4321 66.3467 29.9939 67.1436C30.5557 67.9404 31.6514 68.0068 32.6355 68.0068H56.3625C57.3466 68.0068 58.4423 67.9404 59.0081 67.1436C59.5739 66.3467 59.2511 65.3154 58.9085 64.4131ZM56.3625 66.0537H32.6355C32.3194 66.0615 32.0033 66.0406 31.6912 65.9912C31.7502 65.6852 31.8396 65.3856 31.9582 65.0967L32.0618 64.835C33.6834 60.5772 34.4962 58.4404 35.8748 57.5029C37.2534 56.5654 39.5763 56.5498 44.2141 56.5615H44.7918C49.4257 56.5615 51.7486 56.5615 53.1271 57.499C54.5057 58.4365 55.3225 60.5732 56.9402 64.8311L57.0438 65.0928C57.1618 65.3822 57.2525 65.6816 57.3147 65.9873C57.0004 66.0408 56.6813 66.063 56.3625 66.0537Z" fill="white"/>
</svg>
