<svg width="89" height="89" viewBox="0 0 89 89" fill="none" xmlns="http://www.w3.org/2000/svg">
<rect x="0.5" y="0.989258" width="88" height="88" rx="44" fill="#009DA8"/>
<path d="M50.111 56.9051H50.0859L40.5746 56.8419C40.1348 56.8393 39.7806 56.4869 39.7832 56.0557C39.7859 55.6258 40.1427 55.2798 40.5799 55.2798H40.5852L50.0965 55.343C51.167 55.3508 52.0664 54.5091 52.0743 53.4298C52.0822 52.3673 51.2065 51.4985 50.1228 51.4907L46.1882 51.4649C44.9201 51.4572 43.6823 51.1021 42.6091 50.4386L40.1888 48.9436C39.3671 48.4363 38.4203 48.1639 37.4485 48.1574L30.3852 48.1109C29.9454 48.1083 29.5911 47.7559 29.5938 47.3247C29.5964 46.9026 29.9427 46.5488 30.3957 46.5488L37.4591 46.5953C38.7271 46.603 39.9649 46.9581 41.0381 47.6216L43.4584 49.1166C44.2801 49.624 45.2269 49.8964 46.1987 49.9028L50.1333 49.9286C52.0954 49.9415 53.6808 51.5166 53.6677 53.4401C53.6545 55.356 52.0612 56.9051 50.111 56.9051Z" fill="white"/>
<path d="M41.7238 65.1561C40.2148 64.903 38.7663 64.255 37.5377 63.2841C35.5072 61.6807 32.9302 60.351 30.3084 60.351C29.8712 60.351 29.5144 60.005 29.5117 59.5751C29.5091 59.1439 29.8633 58.7915 30.3031 58.7889C33.3226 58.7889 36.2406 60.2529 38.5385 62.068C39.5564 62.8723 40.752 63.4081 41.9938 63.6172C44.6063 64.0561 46.5815 63.3009 47.5257 62.8116C48.4145 62.3508 49.252 61.9557 50.0869 61.6046C50.0882 61.6046 63.7027 55.87 63.704 55.8687C64.7034 55.4646 65.1867 54.3492 64.7719 53.3539C64.3571 52.3688 63.2102 51.9015 62.2068 52.3069L51.3918 56.6756C50.9849 56.8395 50.5188 56.6497 50.3515 56.2508C50.1843 55.8519 50.3779 55.3949 50.7848 55.231L61.5997 50.8622C63.9555 49.9095 66.5351 51.6317 66.5141 54.1104C66.5048 55.5176 65.6423 56.7724 64.3163 57.3107C50.4556 63.186 50.4253 63.0737 48.2697 64.193C46.4064 65.1535 44.1086 65.5524 41.7238 65.1561Z" fill="white"/>
<path d="M29.4033 62.7247L22.9601 62.6821C22.0278 62.6769 21.2851 61.9282 21.293 61.0245L21.3971 45.8489C21.4023 44.9646 22.1279 44.2145 23.0878 44.2145L29.531 44.2571C30.4567 44.2636 31.2047 45.0072 31.1994 45.9147L31.0954 61.0903C31.0875 61.9759 30.3579 62.7247 29.4033 62.7247ZM29.4994 61.08L29.6034 45.9044C29.6034 45.8579 29.5652 45.8205 29.5191 45.8205C22.6428 45.7831 23.0628 45.756 23.0154 45.8024C22.9693 45.8476 23.0036 45.184 22.8864 61.0348C22.8864 61.0813 22.9246 61.1187 22.972 61.1187L29.4138 61.1626C29.4612 61.1626 29.4994 61.1252 29.4994 61.08ZM55.4853 48.64C54.4516 48.64 53.6984 47.7544 53.2112 47.6589C52.7253 47.5633 51.6758 48.0914 50.725 47.6976C49.8046 47.3168 49.4569 46.2104 49.0882 45.9677C48.7129 45.7185 47.5541 45.8308 46.8404 45.1298C46.1294 44.4327 46.2387 43.2966 45.9858 42.9261C45.729 42.5543 44.6137 42.2316 44.2213 41.3214C43.8223 40.3984 44.3556 39.3514 44.2608 38.884C44.1647 38.4128 43.26 37.664 43.26 36.6545C43.26 35.6424 44.1634 34.8974 44.2608 34.4249C44.295 34.2571 44.2397 33.9666 44.1844 33.6865C44.0883 33.1908 43.9685 32.5737 44.2213 31.9876C44.6098 31.0852 45.7383 30.7443 45.9858 30.3829C46.24 30.0149 46.1254 28.8789 46.8404 28.1791C47.5515 27.482 48.7103 27.5892 49.0882 27.3413C49.4675 27.0895 49.7967 25.9961 50.725 25.6114C51.6665 25.2202 52.7345 25.743 53.2112 25.6501C53.6918 25.5559 54.4555 24.6689 55.4853 24.6689C56.5177 24.6689 57.2775 25.5546 57.7594 25.6501C57.9306 25.6837 58.2269 25.6294 58.5126 25.5752C59.0183 25.481 59.6477 25.3635 60.2455 25.6114C61.166 25.9922 61.5136 27.0986 61.8823 27.3413C62.2576 27.5905 63.4164 27.4781 64.1301 28.1791C64.8412 28.8763 64.7319 30.0123 64.9847 30.3829C65.2415 30.7547 66.3569 31.0774 66.7493 31.9876C67.1483 32.9106 66.615 33.9576 66.7098 34.4249C66.8072 34.8962 67.7105 35.6449 67.7105 36.6545C67.7105 37.6679 66.8072 38.4064 66.7098 38.884C66.6123 39.3604 67.1509 40.3893 66.7493 41.3214C66.3608 42.2238 65.2323 42.5646 64.9847 42.9261C64.7306 43.294 64.8452 44.4301 64.1301 45.1298C63.6798 45.5713 63.0648 45.685 62.571 45.7779C62.309 45.827 62.0127 45.8825 61.8823 45.9677C61.5031 46.2194 61.1739 47.3129 60.2455 47.6976C59.304 48.0888 58.2361 47.5659 57.7594 47.6589C57.5895 47.6924 57.3394 47.8551 57.0971 48.0126C56.6678 48.2915 56.1345 48.64 55.4853 48.64ZM54.7545 46.7113C55.0178 46.883 55.3167 47.0779 55.484 47.0779C55.8527 47.0779 56.5927 46.2943 57.4421 46.1265C58.2993 45.9574 59.2816 46.3989 59.6227 46.2569C59.7557 46.2013 59.9545 45.898 60.1007 45.6759C60.3285 45.3299 60.5866 44.9362 60.9882 44.6702C61.6888 44.2068 62.7672 44.252 63.0003 44.0235C63.103 43.9228 63.1689 43.5819 63.2215 43.3082C63.4441 42.1451 63.6903 41.8081 64.6858 41.1807C64.9123 41.0374 65.2218 40.8425 65.2784 40.7121C65.4206 40.3803 64.9729 39.4107 65.1454 38.5742C65.3179 37.7363 66.1159 37.0173 66.1159 36.6545C66.1159 36.4905 65.917 36.1975 65.7419 35.9393C65.0769 34.9581 64.9913 34.5682 65.2178 33.396C65.2771 33.0914 65.3429 32.7467 65.2784 32.5969C65.2218 32.4665 64.9123 32.2716 64.6858 32.1283C64.3329 31.9049 63.9313 31.6519 63.66 31.2582C63.1873 30.5713 63.2334 29.514 63.0003 29.2855C62.8976 29.1848 62.55 29.1203 62.2708 29.0686C61.0844 28.8505 60.7407 28.609 60.1007 27.6331C59.9545 27.411 59.7557 27.1076 59.6227 27.0521C59.2843 26.9127 58.2954 27.3516 57.4421 27.1825C56.5875 27.0134 55.854 26.231 55.484 26.231C55.1113 26.231 54.3831 27.0134 53.5259 27.1825C52.6686 27.3516 51.6863 26.9101 51.3452 27.0521C51.2122 27.1076 51.0134 27.411 50.8672 27.6331C50.6394 27.979 50.3813 28.3728 49.9797 28.6387C49.2792 29.1022 48.2007 29.057 47.9676 29.2855C47.8649 29.3862 47.7991 29.727 47.7464 30.0007C47.5239 31.1639 47.2776 31.5009 46.2821 32.1283C46.0556 32.2716 45.7462 32.4665 45.6895 32.5969C45.625 32.7467 45.6922 33.0914 45.7501 33.396C45.9766 34.5682 45.891 34.9568 45.226 35.9393C45.0509 36.1975 44.8521 36.4905 44.8521 36.6545C44.8521 37.016 45.6514 37.7415 45.8225 38.5742C45.995 39.4146 45.5447 40.3777 45.6895 40.7121C45.7462 40.8425 46.0556 41.0374 46.2821 41.1807C46.635 41.404 47.0366 41.6571 47.3079 42.0508C47.7806 42.7376 47.7346 43.7949 47.9676 44.0235C48.0703 44.1241 48.418 44.1887 48.6971 44.2403C49.8836 44.4585 50.2273 44.6999 50.8672 45.6759C51.0134 45.898 51.2122 46.2013 51.3452 46.2569C51.498 46.3201 51.8496 46.2543 52.1603 46.1975C53.3244 45.9832 53.7194 46.0374 54.7545 46.7113Z" fill="white"/>
<path d="M55.484 44.385C51.1267 44.385 47.5977 40.9278 47.5977 36.6533C47.5977 32.3801 51.1241 28.9229 55.484 28.9229C59.8413 28.9229 63.3704 32.3801 63.3704 36.6546C63.3704 38.7202 62.55 40.6605 61.0607 42.1219C59.5701 43.5807 57.5896 44.385 55.484 44.385ZM55.484 30.4862C52.0142 30.4862 49.1923 33.2541 49.1923 36.6546C49.1923 40.055 52.0156 42.8229 55.484 42.8229C58.9525 42.8229 61.7757 40.055 61.7757 36.6546C61.7757 33.2528 58.9538 30.4862 55.484 30.4862Z" fill="white"/>
<path d="M57.4101 40.8124L55.4823 39.8196L53.5545 40.8124C52.9698 41.1132 52.2864 40.6252 52.3983 39.9887L52.767 37.8844L51.2092 36.3946C50.7378 35.9428 50.9986 35.1552 51.6517 35.0623L53.806 34.755L54.7699 32.8405C55.0609 32.2621 55.9076 32.2609 56.1999 32.8405L57.1639 34.755L59.3182 35.0623C59.9687 35.154 60.2346 35.944 59.7606 36.3946L58.2015 37.8844L58.5702 39.9887C58.6216 40.2818 58.4991 40.5774 58.2529 40.753C57.9961 40.9324 57.6735 40.9479 57.4101 40.8124ZM53.4768 36.3804L54.18 37.0517C54.3683 37.2312 54.4539 37.4894 54.4091 37.7437L54.2432 38.6926L55.1123 38.2446C55.344 38.1245 55.6219 38.1245 55.8536 38.2446L56.7227 38.6926L56.5568 37.7437C56.512 37.4906 56.5976 37.2312 56.7859 37.0517L57.4891 36.3804L56.5173 36.2423C56.2579 36.2048 56.034 36.046 55.9168 35.8149L55.4823 34.9513L55.0477 35.8149C54.9319 36.046 54.7067 36.2048 54.4473 36.2423L53.4768 36.3804Z" fill="white"/>
</svg>
