<svg width="89" height="89" viewBox="0 0 89 89" fill="none" xmlns="http://www.w3.org/2000/svg">
<rect x="0.5" y="0.881836" width="88" height="88" rx="44" fill="#009DA8"/>
<path d="M33.7148 39.2412C33.7148 33.5195 38.5395 28.835 44.505 28.835C50.4713 28.835 55.2959 33.5188 55.2959 39.2404C55.2959 44.9621 50.4706 49.6459 44.505 49.6459C38.5394 49.6459 33.7148 44.9629 33.7148 39.2412ZM34.3086 39.2404C34.3086 44.6854 38.8994 49.0834 44.505 49.0834C50.1096 49.0834 54.7021 44.6864 54.7021 39.2412C54.7021 33.7962 50.1097 29.3975 44.505 29.3975C38.9003 29.3975 34.3086 33.7954 34.3086 39.2404Z" fill="white" stroke="white"/>
<path d="M45.4376 55.4287C45.3414 55.4338 45.2456 55.4401 45.1498 55.4465C44.9361 55.4607 44.7226 55.4748 44.5052 55.4748C44.2887 55.4748 44.076 55.4607 43.8628 55.4465C43.7669 55.4402 43.6709 55.4338 43.5745 55.4287L39.0929 65.7943C38.9776 66.062 38.7891 66.2932 38.5482 66.4624C38.3073 66.6316 38.0234 66.7321 37.7278 66.7529L45.4376 55.4287ZM45.4376 55.4287L49.92 65.7928L45.4376 55.4287ZM57.4995 48.7136L57.3157 48.9476L57.4337 49.2207L62.4349 60.7989L62.4354 60.7999C62.5135 60.9796 62.5398 61.1761 62.5121 61.3687C62.4843 61.5614 62.4033 61.7439 62.2765 61.8964C62.1497 62.049 61.9819 62.1659 61.7903 62.2332C61.5987 62.3005 61.3916 62.3153 61.1916 62.2757L61.1901 62.2754L56.1499 61.2942L56.1475 61.2937C55.8827 61.2435 55.6084 61.2733 55.3606 61.3796C55.1127 61.4859 54.902 61.6643 54.7575 61.8928L54.7562 61.895L52.3552 65.7364L52.3548 65.737C52.1533 66.0605 51.7969 66.2568 51.4062 66.2568L51.4043 66.2568C51.1838 66.2576 50.9687 66.1943 50.7863 66.076C50.6039 65.9577 50.4629 65.7902 50.3795 65.5957L50.3789 65.5943L45.8965 55.2302L45.7585 54.9111L45.4112 54.9294C45.3 54.9353 45.1965 54.9422 45.0972 54.9488C44.8927 54.9624 44.7059 54.9748 44.5052 54.9748C44.3054 54.9748 44.1194 54.9624 43.9156 54.9488C43.8161 54.9422 43.7125 54.9353 43.6008 54.9294L43.2535 54.9111L43.1155 55.2303L38.6339 65.5959L38.6336 65.5966C38.5554 65.7783 38.4268 65.9367 38.2609 66.0532C38.0949 66.1698 37.8982 66.2397 37.6927 66.2542L37.6902 66.2543C37.4847 66.2698 37.2792 66.2292 37.0967 66.1375C36.9143 66.0459 36.7626 65.9073 36.6575 65.7382L36.6569 65.7372L34.2567 61.8958L34.2566 61.8957C33.9621 61.4245 33.405 61.1937 32.8674 61.2942L32.864 61.2949L27.8118 62.2762L27.8099 62.2765C27.6103 62.3161 27.4035 62.3012 27.2123 62.2337C27.0211 62.1663 26.8538 62.0492 26.7277 61.8964L26.7265 61.8949C26.5999 61.7427 26.5189 61.5604 26.4912 61.3681C26.4634 61.1758 26.4898 60.9794 26.5678 60.8001L26.5683 60.7991L31.5774 49.2218L31.6957 48.9484L31.5116 48.7143C29.4349 46.072 28.1904 42.7966 28.1904 39.2412C28.1904 30.5814 35.4915 23.5068 44.5044 23.5068C53.5174 23.5068 60.8185 30.5806 60.8193 39.2412C60.8193 42.7958 59.5748 46.0713 57.4995 48.7136ZM37.1683 65.4499L37.6716 66.2554L38.0508 65.3845L42.3714 55.4603L42.6316 54.8627L41.987 54.7662C38.4169 54.2322 35.129 52.5553 32.6351 49.9991L32.1144 49.4654L31.8183 50.1497L27.1175 61.0114L26.7434 61.876L27.6691 61.7013L32.7412 60.7443L32.7429 60.7439C33.1319 60.6692 33.5347 60.7127 33.8971 60.8681L34.0852 60.4296L33.8971 60.8681C34.2592 61.0233 34.5626 61.2823 34.7683 61.6089C34.7685 61.6092 34.7687 61.6095 34.7689 61.6098L37.1683 65.4499ZM28.7849 39.2404C28.7849 47.557 35.7428 54.3035 44.2993 54.4102L44.3014 54.4123H44.506C53.1574 54.4123 60.2263 47.6244 60.2263 39.2412C60.2263 30.8581 53.1566 24.0693 44.506 24.0693C35.8555 24.0693 28.7849 30.8572 28.7849 39.2404ZM54.243 61.6113L54.2438 61.6099C54.4497 61.2829 54.7534 61.0236 55.1158 60.8682C55.4646 60.7187 55.8509 60.6727 56.2262 60.7361L56.2696 60.7445L61.3106 61.7257L62.2385 61.9064L61.8656 61.0377L57.1927 50.1533L56.8977 49.4663L56.3755 50.0013C53.8811 52.5569 50.5929 54.233 47.0228 54.7662L46.3796 54.8623L46.6377 55.4592L50.9281 65.3811L51.3033 66.2486L51.8093 65.4503L54.243 61.6113Z" fill="white" stroke="white"/>
<path d="M50.9062 37.2386L50.9064 37.2392C50.9231 37.2894 50.9248 37.3408 50.913 37.3882C50.9007 37.4374 50.8744 37.4836 50.8356 37.5209L50.8352 37.5213L48.0733 40.1854L47.8825 40.3694L47.9277 40.6306L48.5803 44.3978L48.5805 44.3985C48.5892 44.4483 48.5835 44.4996 48.5638 44.5471L49.0253 44.7395L48.5638 44.5471C48.5439 44.5946 48.5103 44.6371 48.4654 44.6689C48.4204 44.7007 48.3662 44.7202 48.309 44.724C48.2517 44.7278 48.1949 44.7156 48.1453 44.6897L48.1444 44.6892L44.7378 42.9158L44.5069 42.7956L44.276 42.9158L40.8694 44.6892L40.869 44.6894C40.8195 44.7153 40.7627 44.7273 40.7055 44.7235C40.6483 44.7197 40.5942 44.7002 40.5492 44.6684L40.2603 45.0765L40.5492 44.6684C40.5043 44.6366 40.4708 44.5941 40.451 44.5466C40.4312 44.4993 40.4255 44.448 40.4342 44.3982L40.4343 44.3977L41.0861 40.6305L41.1313 40.3694L40.9406 40.1854L38.1788 37.5207C38.1788 37.5207 38.1788 37.5207 38.1788 37.5207C38.1787 37.5206 38.1787 37.5206 38.1787 37.5206C38.14 37.4832 38.1138 37.4371 38.1016 37.3879C38.0894 37.3388 38.0914 37.2874 38.1075 37.2391C38.1237 37.1907 38.1537 37.1463 38.1957 37.1117C38.2377 37.077 38.2898 37.0538 38.3463 37.0456L38.3466 37.0456L42.1572 36.4972L42.4166 36.4598L42.5335 36.2253L44.2388 32.8034L44.2388 32.8034C44.262 32.7568 44.2988 32.7162 44.3463 32.6871C44.3939 32.658 44.4497 32.6421 44.5073 32.6421C44.565 32.6421 44.6208 32.658 44.6683 32.6871C44.7158 32.7162 44.7526 32.7568 44.7758 32.8034L44.7758 32.8034L46.4811 36.2253L46.598 36.4599L46.8575 36.4972L50.6677 37.0448C50.6678 37.0448 50.6679 37.0448 50.668 37.0448C50.7244 37.053 50.7764 37.0764 50.8183 37.1111L51.1372 36.726L50.8183 37.1111C50.8602 37.1458 50.8901 37.1902 50.9062 37.2386ZM47.2723 40.32L47.2722 40.3199C47.2648 40.2769 47.268 40.2327 47.2818 40.1908C47.2956 40.1489 47.3198 40.1099 47.3533 40.0775L49.2697 38.2276L50.0045 37.5183L48.9936 37.373L46.3528 36.9933C46.3035 36.9862 46.2574 36.9675 46.2184 36.9396C46.1795 36.9117 46.1491 36.8757 46.1289 36.8353L44.9544 34.4799L44.5068 33.5823L44.0594 34.48L42.8858 36.8352C42.8858 36.8352 42.8857 36.8352 42.8857 36.8352C42.8656 36.8757 42.8351 36.9117 42.7961 36.9396C42.7571 36.9675 42.7109 36.9862 42.6616 36.9932L42.6611 36.9933L40.0203 37.373L39.0094 37.5183L39.7442 38.2276L41.6605 40.0775C41.694 40.1099 41.7183 40.1489 41.7321 40.1908C41.7459 40.2327 41.7491 40.2769 41.7416 40.3199L41.7416 40.32L41.2905 42.9232L41.1181 43.9183L42.014 43.452L44.3648 42.2286L44.3656 42.2282C44.4087 42.2057 44.4574 42.1936 44.5073 42.1936C44.5572 42.1936 44.606 42.2057 44.6491 42.2282L44.6498 42.2286L46.9997 43.452L47.8958 43.9185L47.7233 42.9232L47.2723 40.32Z" fill="white" stroke="white"/>
</svg>
