<svg width="76" height="55" viewBox="0 0 76 55" fill="none" xmlns="http://www.w3.org/2000/svg">
<g clip-path="url(#clip0_23_5653)">
<path d="M24.1915 9.58195C19.0266 9.51829 18.1814 9.67499 17.2538 10.1206C14.6761 11.3595 13.5804 13.803 13.3736 14.2894C12.3603 16.6692 12.7514 18.8091 12.9195 19.5404C10.0445 19.6742 13.3283 19.5453 8.44943 19.6171C3.11803 19.6987 1.87042 23.3092 0.5 25.929H28.7763V9.68152C27.6661 9.64724 26.0888 9.6048 24.1915 9.58195ZM23.015 19.5142H18.6533V17.3368C18.6581 17.1263 18.6775 16.2448 19.2447 15.6899C19.5744 15.3601 20.0592 15.1545 20.5748 15.1071C20.717 15.0925 23.015 15.179 23.015 15.179V19.5142Z" fill="white"/>
<path d="M75.4992 19.5552C74.8059 22.8687 71.131 25.9292 68.0847 25.9292C61.8435 25.8688 31.838 25.9292 31.838 25.9292C31.838 25.9292 31.8267 13.7378 31.8283 7.61524C31.8299 4.91385 35.0944 1.09437 38.0808 0.536133V19.5552H75.4992Z" fill="white"/>
<path d="M22.5211 36.0654H0.578125C1.27142 32.7503 4.78313 28.9243 7.8278 28.9243H28.654C28.654 28.9243 28.7752 41.3001 28.7736 47.4227C28.772 50.1241 25.5076 53.9436 22.5211 54.5018V36.0654Z" fill="white"/>
<path d="M31.8281 36.0654V28.9536H75.4991C74.7848 32.1643 72.1603 36.0654 67.6272 36.0654C56.0804 36.0654 43.5284 36.0392 31.8281 36.0654Z" fill="white"/>
<path d="M44.0742 41.1447C42.7732 40.0805 41.1184 39.8454 39.3957 39.8193C38.0382 39.7997 37.6697 39.8699 35 39.9123C33.6732 39.9336 32.5936 39.9172 31.9068 39.8993C31.9359 42.8488 31.91 45.826 31.8292 48.7494C31.805 49.6145 32.1799 50.4812 32.5839 51.2451C33.114 52.2457 34.1968 53.4813 36.7308 54.2256C38.4276 54.7251 41.1313 54.4737 42.5599 53.8437C42.5987 53.8257 44.0014 52.8594 44.0014 52.8594L46.0587 54.4998V46.8723C46.1007 46.1639 46.2268 42.9059 44.0742 41.1447ZM40.5334 48.7494H37.1219V45.3429H39.2631C39.9645 45.3429 40.5334 45.9109 40.5334 46.6111V48.7494Z" fill="white"/>
<path d="M49.3047 54.4966V45.2139C49.3047 45.2139 49.3047 44.9707 49.3661 44.5839C49.8008 41.8188 52.2185 39.816 54.99 39.816H59.2176C59.2176 39.816 61.3444 40.0658 61.3444 40.6909C61.3444 41.3145 61.7953 39.7997 62.9249 39.816C64.0545 39.8324 72.0217 39.816 72.0217 39.816V49.8169C71.7034 50.46 71.1927 51.299 70.3846 52.1249C68.9787 53.5597 67.4176 54.193 66.5481 54.4705C66.5465 51.4949 66.5465 48.8408 66.5449 45.8652H63.6764V49.1934C63.434 49.8822 63.0509 51.0525 62.3027 51.978C60.8175 53.8143 58.9267 54.2566 58.0961 54.5015V45.8652H55.3989C55.352 46.9311 55.3068 47.9986 55.2599 49.0644C55.011 49.7794 54.5617 50.7734 53.744 51.7495C52.1393 53.6658 50.137 54.2893 49.3047 54.4966Z" fill="white"/>
<path d="M56.0028 0.5V4.1889L54.4368 5.95501L53.3476 7.18247C53.1327 7.36691 52.8951 7.51218 52.643 7.61501L49.6016 4.18401L51.1659 2.34282L51.8996 1.47936C51.9966 1.3651 52.1016 1.259 52.2131 1.1627C52.4442 0.961929 52.6996 0.8036 52.9711 0.692606C53.2765 0.566923 53.6029 0.5 53.9359 0.5L56.0028 0.5Z" fill="#009DA9"/>
<path d="M50.3192 6.2391V9.92801L48.7532 11.6941L47.664 12.9216C47.4491 13.106 47.2115 13.2513 46.9594 13.3541L43.918 9.92148L45.4823 8.08029L46.216 7.21683C46.313 7.10094 46.418 6.99484 46.5295 6.90017C46.7606 6.6994 47.016 6.54107 47.2875 6.42845C47.5929 6.30276 47.9193 6.23584 48.2523 6.23584H50.3192V6.2391Z" fill="#009DA9"/>
<path d="M16.9833 41.6348V45.3237L15.4173 47.0898L14.3281 48.3172C14.1131 48.5017 13.8756 48.6469 13.6235 48.7498L10.582 45.3188L12.1464 43.4776L12.8801 42.6141C12.977 42.4999 13.0821 42.3938 13.1936 42.2975C13.4247 42.0967 13.68 41.9384 13.9515 41.8274C14.257 41.7017 14.5834 41.6348 14.9163 41.6348H16.9833Z" fill="#009DA9"/>
</g>
<defs>
<clipPath id="clip0_23_5653">
<rect width="75" height="54" fill="white" transform="translate(0.5 0.5)"/>
</clipPath>
</defs>
</svg>
