<svg width="75" height="54" viewBox="0 0 75 54" fill="none" xmlns="http://www.w3.org/2000/svg">
<g clip-path="url(#clip0_510_1164)">
<path d="M23.6915 9.08098C18.5266 9.01732 17.6814 9.17401 16.7538 9.61962C14.1761 10.8585 13.0804 13.302 12.8736 13.7884C11.8603 16.1682 12.2514 18.3081 12.4195 19.0394C9.54448 19.1732 12.8283 19.0443 7.94943 19.1161C2.61803 19.1977 1.37042 22.8083 0 25.428H28.2763V9.18054C27.1661 9.14627 25.5888 9.10383 23.6915 9.08098ZM22.515 19.0133H18.1533V16.8358C18.1581 16.6253 18.1775 15.7439 18.7447 15.1889C19.0744 14.8592 19.5592 14.6535 20.0748 14.6062C20.217 14.5915 22.515 14.678 22.515 14.678V19.0133Z" fill="#D67254"/>
<path d="M74.9992 19.0542C74.3059 22.3677 70.631 25.4282 67.5847 25.4282C61.3435 25.3678 31.338 25.4282 31.338 25.4282C31.338 25.4282 31.3267 13.2369 31.3283 7.11426C31.3299 4.41287 34.5944 0.593389 37.5808 0.0351562V19.0542H74.9992Z" fill="#D67254"/>
<path d="M22.025 35.564H0.0820312C0.775324 32.2489 4.28703 28.4229 7.3317 28.4229H28.1579C28.1579 28.4229 28.2792 40.7986 28.2775 46.9212C28.2759 49.6226 25.0115 53.4421 22.025 54.0003V35.564Z" fill="#D67254"/>
<path d="M31.3281 35.5639V28.4521H74.9991C74.2848 31.6628 71.6603 35.5639 67.1272 35.5639C55.5804 35.5639 43.0284 35.5378 31.3281 35.5639Z" fill="#D67254"/>
<path d="M43.5742 40.6442C42.2732 39.58 40.6184 39.3449 38.8957 39.3188C37.5382 39.2992 37.1697 39.3694 34.5 39.4118C33.1732 39.4331 32.0936 39.4167 31.4068 39.3988C31.4359 42.3483 31.41 45.3255 31.3292 48.2489C31.305 49.114 31.6799 49.9807 32.0839 50.7446C32.614 51.7452 33.6968 52.9808 36.2308 53.7251C37.9276 54.2246 40.6313 53.9732 42.0599 53.3432C42.0987 53.3252 43.5014 52.3589 43.5014 52.3589L45.5587 53.9993V46.3718C45.6007 45.6634 45.7268 42.4054 43.5742 40.6442ZM40.0334 48.2489H36.6219V44.8424H38.7631C39.4645 44.8424 40.0334 45.4104 40.0334 46.1106V48.2489Z" fill="#D67254"/>
<path d="M48.8047 53.9961V44.7134C48.8047 44.7134 48.8047 44.4702 48.8661 44.0834C49.3008 41.3183 51.7185 39.3156 54.49 39.3156H58.7176C58.7176 39.3156 60.8444 39.5653 60.8444 40.1905C60.8444 40.814 61.2953 39.2992 62.4249 39.3156C63.5545 39.3319 71.5217 39.3156 71.5217 39.3156V49.3164C71.2034 49.9595 70.6927 50.7985 69.8846 51.6244C68.4787 53.0592 66.9176 53.6925 66.0481 53.97C66.0465 50.9944 66.0465 48.3403 66.0449 45.3647H63.1764V48.6929C62.934 49.3817 62.5509 50.552 61.8027 51.4775C60.3175 53.3138 58.4267 53.7562 57.5961 54.001V45.3647H54.8989C54.852 46.4306 54.8068 47.4981 54.7599 48.5639C54.511 49.2789 54.0617 50.2729 53.244 51.249C51.6393 53.1653 49.637 53.7888 48.8047 53.9961Z" fill="#D67254"/>
<path d="M55.5028 -0.000976562V3.68793L53.9368 5.45403L52.8476 6.68149C52.6327 6.86593 52.3951 7.01121 52.143 7.11404L49.1016 3.68303L50.6659 1.84184L51.3996 0.978379C51.4966 0.86412 51.6016 0.758024 51.7131 0.66172C51.9442 0.460953 52.1996 0.302624 52.4711 0.19163C52.7765 0.065946 53.1029 -0.000976562 53.4359 -0.000976562L55.5028 -0.000976562Z" fill="#009DA9"/>
<path d="M49.8192 5.73764V9.42654L48.2532 11.1926L47.164 12.4201C46.9491 12.6045 46.7115 12.7498 46.4594 12.8527L43.418 9.42001L44.9823 7.57883L45.716 6.71536C45.813 6.59947 45.918 6.49338 46.0295 6.3987C46.2606 6.19794 46.516 6.03961 46.7875 5.92698C47.0929 5.8013 47.4193 5.73438 47.7523 5.73438H49.8192V5.73764Z" fill="#009DA9"/>
<path d="M16.4833 41.1338V44.8227L14.9173 46.5888L13.8281 47.8163C13.6131 48.0007 13.3756 48.146 13.1235 48.2488L10.082 44.8178L11.6464 42.9766L12.3801 42.1131C12.477 41.9989 12.5821 41.8928 12.6936 41.7965C12.9247 41.5957 13.18 41.4374 13.4515 41.3264C13.757 41.2007 14.0834 41.1338 14.4163 41.1338H16.4833Z" fill="#009DA9"/>
</g>
<defs>
<clipPath id="clip0_510_1164">
<rect width="75" height="54.0016" fill="white" transform="translate(0 -0.000976562)"/>
</clipPath>
</defs>
</svg>
